<?xml version="1.0" standalone="no"?>
<!DOCTYPE svg PUBLIC "-//W3C//DTD SVG 1.1//EN" "http://www.w3.org/Graphics/SVG/1.1/DTD/svg11.dtd">
<svg class="icon" viewBox="0 0 1024 1024" version="1.1" xmlns="http://www.w3.org/2000/svg" xmlns:xlink="http://www.w3.org/1999/xlink">
<!--    <defs>-->
        <style type="text/css">
          .pid {
                background: red;
            }
        </style>
<!--    </defs>-->
    <symbol id="my" viewBox="0 0 1024 1024">
        <path d="M512 64c18.368 0 35.52 9.728 45.44 25.28l3.392 6.08 104.128 220.992a15.168 15.168 0 0 0 4.48 5.312l1.856 1.088 3.84 0.384 21.568 4.16 217.152 32.192c20.288 3.136 36.928 17.472 43.52 37.568a56.832 56.832 0 0 1-8.32 50.752l-4.992 5.952-175.552 179.328a9.92 9.92 0 0 0-2.816 5.44v3.008l40.768 248.576a56.32 56.32 0 0 1-22.016 54.4 53.76 53.76 0 0 1-51.2 6.4l-6.016-2.88-208.96-115.2a13.248 13.248 0 0 0-6.336-1.6l-3.264 0.448-3.2 1.28-208.896 115.008a53.696 53.696 0 0 1-57.28-3.712 56.128 56.128 0 0 1-22.592-46.464l0.704-7.808 40.768-248.704a9.6 9.6 0 0 0-0.896-5.824l-1.792-2.496-175.68-179.52a56.64 56.64 0 0 1-13.12-56.64 54.784 54.784 0 0 1 36.096-35.776l7.424-1.664 239.68-36.48a11.904 11.904 0 0 0 7.616-4.224l1.6-2.496 104-220.928A54.528 54.528 0 0 1 512 64z m0 44.8a9.28 9.28 0 0 0-6.848 3.2l-1.472 2.304-104.192 221.184a56.704 56.704 0 0 1-36.032 30.272l-6.784 1.344-239.552 36.48a9.664 9.664 0 0 0-7.68 6.784 12.16 12.16 0 0 0 0.64 9.344l1.728 2.432L287.36 601.408a54.4 54.4 0 0 1 15.808 39.808l-0.704 7.36-40.768 248.768a11.52 11.52 0 0 0 4.224 10.816c1.472 1.088 3.2 1.664 5.056 1.664l2.048-0.32 1.92-0.768L484.096 793.6a58.688 58.688 0 0 1 49.28-3.072l6.592 3.072 209.024 115.2a8.576 8.576 0 0 0 9.024-0.512 11.328 11.328 0 0 0 4.352-7.808l-0.064-3.2-40.768-248.512a54.528 54.528 0 0 1 10.24-41.536l4.736-5.504 175.296-178.944a11.968 11.968 0 0 0 3.008-11.84 10.624 10.624 0 0 0-5.12-6.4l-2.368-0.768-219.136-32.512-17.024-3.52-3.84-0.384-10.048-2.048a57.408 57.408 0 0 1-28.992-23.104l-3.84-6.72L520.32 114.496A9.6 9.6 0 0 0 512 108.8z"></path>
        <path d="M630.272 496.96a23.04 23.04 0 0 0-40.448 3.584 77.952 77.952 0 0 1-143.552 0.128 23.04 23.04 0 0 0-40.448-3.584 23.168 23.168 0 0 0-1.92 21.952 124.288 124.288 0 0 0 228.48 0 23.68 23.68 0 0 0-2.112-22.08z"></path>
    </symbol>
</svg>